<?xml version="1.0" encoding="UTF-8"?>
<svg xmlns="http://www.w3.org/2000/svg" viewBox="0 0 800 1100" width="800" height="1100">
  <defs>
    <!-- Sfondo caldo crema -->
    <linearGradient id="bgGradB" x1="0" y1="0" x2="0" y2="1">
      <stop offset="0%" stop-color="#f8f4ec"/>
      <stop offset="100%" stop-color="#f3efe3"/>
    </linearGradient>
    <!-- Alone verde bamboo in alto -->
    <radialGradient id="glowB1" cx="50%" cy="8%" r="55%">
      <stop offset="0%" stop-color="#3f7d3a" stop-opacity="0.10"/>
      <stop offset="100%" stop-color="#3f7d3a" stop-opacity="0"/>
    </radialGradient>
    <!-- Alone wood in basso -->
    <radialGradient id="glowB2" cx="50%" cy="95%" r="45%">
      <stop offset="0%" stop-color="#8b6340" stop-opacity="0.08"/>
      <stop offset="100%" stop-color="#8b6340" stop-opacity="0"/>
    </radialGradient>
    <!-- Gradient verde per titolo -->
    <linearGradient id="greenGrad" x1="0" y1="0" x2="0" y2="1">
      <stop offset="0%" stop-color="#2a5626"/>
      <stop offset="100%" stop-color="#3f7d3a"/>
    </linearGradient>
  </defs>

  <!-- Sfondo -->
  <rect width="800" height="1100" fill="url(#bgGradB)"/>
  <rect width="800" height="1100" fill="url(#glowB1)"/>
  <rect width="800" height="1100" fill="url(#glowB2)"/>

  <!-- Cornice decorativa doppia — in verde scuro -->
  <rect x="24" y="24" width="752" height="1052" fill="none"
        stroke="#2a5626" stroke-opacity="0.20" stroke-width="1.2"/>
  <rect x="37" y="37" width="726" height="1026" fill="none"
        stroke="#8b6340" stroke-opacity="0.28" stroke-width="0.8"/>

  <!-- Angoli decorativi in wood -->
  <!-- TL -->
  <line x1="24" y1="80" x2="24" y2="24" stroke="#3f7d3a" stroke-opacity="0.75" stroke-width="2.5"/>
  <line x1="24" y1="24" x2="80" y2="24" stroke="#3f7d3a" stroke-opacity="0.75" stroke-width="2.5"/>
  <!-- TR -->
  <line x1="776" y1="80" x2="776" y2="24" stroke="#3f7d3a" stroke-opacity="0.75" stroke-width="2.5"/>
  <line x1="720" y1="24" x2="776" y2="24" stroke="#3f7d3a" stroke-opacity="0.75" stroke-width="2.5"/>
  <!-- BL -->
  <line x1="24" y1="1020" x2="24" y2="1076" stroke="#3f7d3a" stroke-opacity="0.75" stroke-width="2.5"/>
  <line x1="24" y1="1076" x2="80" y2="1076" stroke="#3f7d3a" stroke-opacity="0.75" stroke-width="2.5"/>
  <!-- BR -->
  <line x1="776" y1="1020" x2="776" y2="1076" stroke="#3f7d3a" stroke-opacity="0.75" stroke-width="2.5"/>
  <line x1="720" y1="1076" x2="776" y2="1076" stroke="#3f7d3a" stroke-opacity="0.75" stroke-width="2.5"/>

  <!-- Motivo bamboo stilizzato sinistra -->
  <g stroke="#3f7d3a" stroke-opacity="0.12" stroke-width="3" fill="none">
    <line x1="62" y1="60" x2="62" y2="1040"/>
    <line x1="72" y1="60" x2="72" y2="1040"/>
    <line x1="62" y1="200" x2="72" y2="200"/>
    <line x1="62" y1="380" x2="72" y2="380"/>
    <line x1="62" y1="560" x2="72" y2="560"/>
    <line x1="62" y1="740" x2="72" y2="740"/>
    <line x1="62" y1="920" x2="72" y2="920"/>
  </g>
  <!-- Motivo bamboo stilizzato destra -->
  <g stroke="#3f7d3a" stroke-opacity="0.12" stroke-width="3" fill="none">
    <line x1="738" y1="60" x2="738" y2="1040"/>
    <line x1="728" y1="60" x2="728" y2="1040"/>
    <line x1="728" y1="200" x2="738" y2="200"/>
    <line x1="728" y1="380" x2="738" y2="380"/>
    <line x1="728" y1="560" x2="738" y2="560"/>
    <line x1="728" y1="740" x2="738" y2="740"/>
    <line x1="728" y1="920" x2="738" y2="920"/>
  </g>

  <!-- Eyebrow + separatore -->
  <g transform="translate(400, 110)" text-anchor="middle" font-family="'Inter', 'Helvetica Neue', Arial, sans-serif">
    <line x1="-90" y1="0" x2="-22" y2="0" stroke="#8b6340" stroke-opacity="0.50" stroke-width="1"/>
    <circle cx="0" cy="-1" r="3.5" fill="#8b6340"/>
    <line x1="22" y1="0" x2="90" y2="0" stroke="#8b6340" stroke-opacity="0.50" stroke-width="1"/>
    <text y="26" font-size="13" letter-spacing="5.5" fill="#2a5626" fill-opacity="0.75" font-weight="600">
      COCKTAIL BAR · LECCE
    </text>
  </g>

  <!-- Titolo BAMBOO -->
  <text x="400" y="228"
        text-anchor="middle"
        font-family="'Georgia', 'Times New Roman', serif"
        font-size="108" font-weight="700" letter-spacing="5"
        fill="url(#greenGrad)">
    BAMBOO
  </text>

  <!-- Linea sottotitolo -->
  <line x1="260" y1="255" x2="540" y2="255"
        stroke="#8b6340" stroke-opacity="0.28" stroke-width="1"/>

  <!-- Testo intro -->
  <text x="400" y="295"
        text-anchor="middle"
        font-family="'Georgia', serif"
        font-size="18" font-style="italic" font-weight="300"
        fill="#5a5040" letter-spacing="1">
    Prenota il tuo tavolo
  </text>

  <!-- Riquadro QR con bordo verde -->
  <rect x="122" y="302" width="556" height="556"
        fill="#fffdf6" rx="20"
        stroke="#3f7d3a" stroke-opacity="0.20" stroke-width="1.5"/>

  <!-- QR code centrato -->
  <g transform="translate(150 330) scale(15.151515151515152)">
    <path stroke="#2a5626" d="M0 0.5h7m1 0h1m1 0h1m2 0h1m2 0h5m2 0h2m1 0h7M0 1.5h1m5 0h1m1 0h2m2 0h1m3 0h1m1 0h2m1 0h2m1 0h1m1 0h1m5 0h1M0 2.5h1m1 0h3m1 0h1m1 0h2m2 0h3m1 0h1m1 0h1m2 0h4m1 0h1m1 0h3m1 0h1M0 3.5h1m1 0h3m1 0h1m2 0h1m3 0h3m2 0h3m1 0h3m1 0h1m1 0h3m1 0h1M0 4.5h1m1 0h3m1 0h1m2 0h2m1 0h3m1 0h3m2 0h1m2 0h1m1 0h1m1 0h3m1 0h1M0 5.5h1m5 0h1m1 0h2m2 0h3m2 0h1m8 0h1m5 0h1M0 6.5h7m1 0h1m1 0h1m1 0h1m1 0h1m1 0h1m1 0h1m1 0h1m1 0h1m1 0h1m1 0h7M8 7.5h3m1 0h2m2 0h1m2 0h1m1 0h1m1 0h1M2 8.5h3m1 0h1m1 0h1m1 0h1m3 0h2m2 0h1m3 0h2m1 0h3m2 0h3M0 9.5h1m6 0h3m1 0h2m3 0h1m2 0h2m2 0h1m1 0h2m3 0h1m1 0h1M0 10.5h2m1 0h7m4 0h3m2 0h1m2 0h1m4 0h1m1 0h1m1 0h1M2 11.5h4m4 0h1m1 0h1m1 0h1m2 0h3m6 0h1m2 0h2m1 0h1M0 12.5h1m2 0h1m2 0h1m2 0h1m7 0h3m1 0h2m1 0h2m2 0h1M0 13.5h6m1 0h1m2 0h3m1 0h4m2 0h1m2 0h2m1 0h1m2 0h1m2 0h1M1 14.5h1m1 0h4m1 0h1m2 0h2m1 0h1m1 0h1m5 0h1m2 0h2m3 0h2M1 15.5h2m4 0h2m1 0h6m2 0h1m2 0h3m2 0h2m2 0h1M2 16.5h7m5 0h1m4 0h2m2 0h1m1 0h1m1 0h2M3 17.5h2m2 0h1m1 0h3m3 0h1m7 0h5m4 0h1M1 18.5h1m1 0h2m1 0h1m5 0h1m3 0h1m1 0h1m2 0h2m7 0h2M0 19.5h2m3 0h1m1 0h1m2 0h1m1 0h1m1 0h1m2 0h1m1 0h1m1 0h1m1 0h2m4 0h3M2 20.5h2m1 0h4m4 0h1m4 0h1m1 0h1m1 0h1m1 0h2m1 0h3m1 0h1M0 21.5h3m1 0h2m1 0h3m3 0h2m1 0h1m1 0h1m1 0h2m1 0h4m3 0h1m1 0h1M0 22.5h1m2 0h5m5 0h1m1 0h5m4 0h1m4 0h3M0 23.5h1m1 0h1m2 0h1m2 0h1m4 0h1m3 0h1m1 0h1m1 0h2m1 0h1m3 0h4M0 24.5h1m1 0h2m1 0h2m7 0h2m2 0h1m1 0h1m1 0h1m1 0h5m2 0h1M8 25.5h1m1 0h1m1 0h1m4 0h2m2 0h1m2 0h1m3 0h1m1 0h1m1 0h1M0 26.5h7m2 0h1m1 0h2m1 0h1m1 0h2m2 0h2m1 0h2m1 0h1m1 0h2m1 0h1M0 27.5h1m5 0h1m3 0h1m1 0h1m1 0h1m4 0h1m1 0h4m3 0h5M0 28.5h1m1 0h3m1 0h1m1 0h1m2 0h2m1 0h2m1 0h1m2 0h2m2 0h5m2 0h2M0 29.5h1m1 0h3m1 0h1m1 0h1m1 0h3m3 0h2m1 0h1m1 0h2m2 0h1m2 0h2m2 0h1M0 30.5h1m1 0h3m1 0h1m1 0h4m1 0h2m5 0h7M0 31.5h1m5 0h1m5 0h1m4 0h1m3 0h2m2 0h3m1 0h2M0 32.5h7m2 0h2m2 0h1m2 0h2m1 0h1m1 0h1m1 0h4m4 0h1"/>
  </g>

  <!-- Pallini decorativi agli angoli QR -->
  <circle cx="136" cy="316" r="5" fill="#8b6340"/>
  <circle cx="664" cy="316" r="5" fill="#8b6340"/>
  <circle cx="136" cy="844" r="5" fill="#8b6340"/>
  <circle cx="664" cy="844" r="5" fill="#8b6340"/>

  <!-- CTA principale -->
  <text x="400" y="898"
        text-anchor="middle"
        font-family="'Georgia', serif"
        font-size="28" font-style="italic" font-weight="400"
        fill="#1a1a10">
    Prenota un tavolo
  </text>

  <!-- CTA multilingua -->
  <text x="400" y="932"
        text-anchor="middle"
        font-family="'Inter', Arial, sans-serif"
        font-size="14" font-weight="400"
        fill="#5a5040" letter-spacing="0.3">
    Book a table · Réserver une table · Tisch reservieren
  </text>

  <!-- Footer -->
  <g transform="translate(400, 1018)" text-anchor="middle"
     font-family="'Inter', Arial, sans-serif">
    <line x1="-70" y1="0" x2="-18" y2="0" stroke="#8b6340" stroke-opacity="0.40" stroke-width="1"/>
    <circle cx="0" cy="-1" r="3" fill="#8b6340" fill-opacity="0.8"/>
    <line x1="18" y1="0" x2="70" y2="0" stroke="#8b6340" stroke-opacity="0.40" stroke-width="1"/>
    <text y="26" font-size="11" letter-spacing="4.5" fill="#5a5040">
      LECCE · PUGLIA · ITALIA
    </text>
    <text y="48" font-size="10" letter-spacing="2.5" fill="#5a5040" fill-opacity="0.70">
      Lun–Sab  07:00–23:00
    </text>
  </g>
</svg>